<svg width="261" height="262" viewBox="0 0 261 262" fill="none" xmlns="http://www.w3.org/2000/svg">
<g opacity="0.3">
<path d="M131.112 116.403C155.73 116.403 175.687 131.942 175.687 151.11C175.687 170.278 155.73 185.817 131.112 185.817C106.494 185.817 86.5366 170.278 86.5366 151.11C86.5366 131.942 106.494 116.403 131.112 116.403Z" fill="#AFAFAF"/>
</g>
<path d="M147.683 165.413L144.235 163.133" stroke="#F49000" stroke-width="13.0375" stroke-linecap="round"/>
<path d="M114.17 165.413L119.844 156.963" stroke="#F49000" stroke-width="13.0375" stroke-linecap="round"/>
<path d="M99.1412 110.566C94.9014 117.928 77.3351 142.129 77.0135 145.182C76.7759 147.438 77.6439 151.883 85.4032 152.701C88.0145 152.976 90.2477 152.342 92.052 151.343C94.5367 149.968 95.4408 148.385 96.9393 146.559C98.4371 144.735 98.9661 143.613 99.8624 142.189C100.759 140.766 102.984 115.431 99.1412 110.566Z" fill="#58CC02"/>
<path d="M163.027 140.44C163.706 141.316 164.916 142.455 166.537 143.409C168.803 144.742 171.926 145.604 175.442 144.671C182.933 142.658 183.148 138.086 182.5 135.892C181.635 132.932 169.42 120.08 163.172 113.123C163.172 113.123 155.488 112.574 161.422 133.902" fill="#58CC02"/>
<mask id="mask0_4_4981" style="mask-type:alpha" maskUnits="userSpaceOnUse" x="86" y="75" width="82" height="95">
<mask id="mask1_4_4981" style="mask-type:luminance" maskUnits="userSpaceOnUse" x="-13" y="-10" width="284" height="283">
<path d="M-12.2111 12.802L247.572 -9.63848L270.012 250.144L10.2294 272.585L-12.2111 12.802Z" fill="white"/>
</mask>
<g mask="url(#mask1_4_4981)">
<path d="M118.73 82.6139C123.797 81.7468 127.839 80.4091 131.261 78.8285C134.485 77.3415 137.83 75.8234 142.535 75.4547C147.573 75.0314 151.806 76.7963 155.117 79.459C157.3 81.2147 159.084 83.3618 160.435 85.5288C162.232 88.4121 163.265 91.3324 163.46 93.4169L166.933 124.559C170.463 156.651 145.311 168.187 132.898 169.878C120.415 170.925 93.3666 165.128 89.8369 133.036L86.362 101.872C85.1752 90.9155 104.264 84.8852 118.73 82.6139ZM115.348 80.8635C119.178 81.6525 124.282 82.4279 129.195 81.8892C141.727 80.5147 162.4 83.7344 163.461 93.4155L166.933 124.559C170.463 156.65 145.311 168.187 132.898 169.878C120.415 170.925 93.3602 165.128 89.837 133.036L86.3623 101.872C86.0378 99.3592 86.5916 95.467 88.3338 91.6444C89.4865 89.115 91.1622 86.6147 93.447 84.565C95.9328 82.335 99.1432 80.6344 103.193 80.0085C108.436 79.1387 111.695 80.1162 115.348 80.8635Z" fill="#58CC02"/>
<path d="M115.348 80.8634C119.178 81.6524 124.282 82.4279 129.195 81.8891C141.727 80.5146 162.399 83.7343 163.461 93.4155L166.933 124.559C170.463 156.65 145.311 168.187 132.898 169.878C120.415 170.925 93.3602 165.128 89.837 133.036L86.3623 101.872C86.0378 99.3591 86.5916 95.467 88.3338 91.6444C89.4865 89.115 91.1622 86.6147 93.447 84.565C95.9328 82.335 99.1432 80.6344 103.193 80.0085C108.436 79.1387 111.695 80.1162 115.348 80.8634Z" fill="#58CC02"/>
</g>
</mask>
<g mask="url(#mask0_4_4981)">
<path d="M209.51 28.0607L226.465 224.341L54.4794 239.197L37.5244 42.9171L209.51 28.0607Z" fill="#58CC02"/>
<path d="M149.657 100.913C146.668 101.736 145.342 118.402 135.68 119.987C126.362 121.485 119.511 109.1 116.068 108.174C112.889 107.3 112.577 111.683 112.888 114.244C111.66 113.229 109.708 111.526 108.264 111.583C106.973 111.592 106.235 114.18 106.357 115.599C106.406 116.172 106.527 116.873 107.044 118.288C105.539 119.871 101.253 123.232 102.45 132.948C103.549 142.229 106.484 146.983 110.451 149.873C114.091 152.534 118.614 153.106 122.594 152.547C129.104 151.627 132.57 146.032 133.222 143.706L142.337 141.712C143.539 143.262 147.761 146.119 154.127 144.798C159.396 143.885 162.422 140.36 163.884 135.321C165.054 131.291 165.226 126.29 164.755 120.88C164.08 113.116 159.771 109.928 158.296 108.93C158.416 108.677 158.472 108.296 158.31 106.412C158.108 104.058 156.994 101.876 156.1 102.107C154.961 102.462 154.164 104.305 153.131 105.998C152.593 102.883 151.78 100.441 149.657 100.913Z" fill="#89E219"/>
</g>
<path d="M136.542 160.187C136.3 159.253 129.392 159.708 126.84 160.368C124.464 160.983 128.713 164.218 132.511 163.236C136.119 162.302 136.702 160.804 136.542 160.187ZM143.66 158.345C143.418 157.412 149.68 154.459 152.232 153.799C154.608 153.184 152.462 158.074 148.663 159.057C145.055 159.99 143.819 158.963 143.66 158.345ZM137.977 163.798C136.723 163.9 136.246 164.366 136.422 165.047C136.715 166.18 139.757 166.024 141.796 165.497C143.835 164.969 146.307 163.336 146.102 162.542C145.937 161.908 145.33 161.844 144.972 161.988C143.074 162.756 139.095 163.707 137.977 163.798Z" fill="#89E219"/>
<path d="M130.524 132.865C129.859 125.192 123.948 119.789 115.885 120.862C110.08 121.623 106.828 125.421 107.263 130.439C107.559 133.856 107.638 134.764 107.97 137.267C108.647 142.884 113.281 147.298 120.775 147.666C127.157 148.002 131.081 144.004 130.97 139.388C130.904 137.847 130.751 135.475 130.524 132.865Z" fill="white"/>
<path d="M143.432 127.88C143.253 120.55 147.687 114.021 154.434 113.374C159.248 112.952 162.051 116.042 162.338 121.069C162.498 124.185 162.446 126.035 162.438 128.652C162.126 132.736 159.844 139.685 153.093 141.007C147.444 142.177 143.951 138.444 143.739 135.76C143.65 133.961 143.472 130.226 143.432 127.88Z" fill="white"/>
<mask id="mask2_4_4981" style="mask-type:alpha" maskUnits="userSpaceOnUse" x="116" y="122" width="39" height="23">
<mask id="mask3_4_4981" style="mask-type:luminance" maskUnits="userSpaceOnUse" x="-9" y="-21" width="297" height="297">
<path d="M-8.42096 3.12988L264.35 -20.4325L287.912 252.338L15.1414 275.9L-8.42096 3.12988Z" fill="white"/>
</mask>
<g mask="url(#mask3_4_4981)">
<path d="M127.636 136.489C127.165 131.037 124.684 128.844 120.958 129.843C115.956 131.168 116.554 134.424 116.881 138.196C117.027 139.885 117.481 141.251 118.159 142.281C119.43 144.211 121.487 144.958 123.782 144.41C125.319 144.08 126.472 143.285 127.12 141.761C127.644 140.528 127.838 138.819 127.636 136.489Z" fill="#4B4B4B"/>
<path d="M145.428 132.067C145.418 125.702 146.898 123.485 149.884 122.928C154.457 121.94 154.208 126.742 154.202 129.368C154.198 131.404 153.901 132.716 153.436 133.916C152.493 136.353 150.793 137.292 149.105 137.652C147.913 137.877 146.956 137.487 146.317 136.425C145.735 135.459 145.431 134.19 145.428 132.067Z" fill="#4B4B4B"/>
</g>
</mask>
<g mask="url(#mask2_4_4981)">
<path d="M222.251 66.4648L232.265 182.392L60.773 197.206L50.759 81.2786L222.251 66.4648Z" fill="#4B4B4B"/>
<path d="M117.669 128.235C119.555 128.072 121.216 129.47 121.379 131.357C121.542 133.244 120.145 134.906 118.259 135.069C116.373 135.232 114.712 133.834 114.549 131.947C114.386 130.06 115.783 128.398 117.669 128.235Z" fill="white"/>
<path d="M145.863 121.374C143.976 121.537 142.578 123.199 142.741 125.086C142.904 126.973 144.567 128.371 146.454 128.208C148.341 128.045 149.739 126.383 149.576 124.496C149.413 122.608 147.75 121.211 145.863 121.374Z" fill="white"/>
</g>
<path d="M139.526 137.788C142.691 137.469 145.497 139.845 145.775 143.065C146.053 146.285 143.753 149.178 140.538 149.462C137.367 149.741 134.573 147.354 134.295 144.134C134.017 140.914 136.364 138.106 139.526 137.788Z" fill="#F49000"/>
<path d="M139.997 140.855C141.422 140.732 142.679 141.809 142.805 143.262C142.93 144.714 141.876 145.991 140.451 146.114C139.026 146.237 137.769 145.16 137.643 143.707C137.518 142.255 138.571 140.978 139.997 140.855Z" fill="#B06800"/>
<path d="M147.641 141.548C147.42 139.194 143.61 136.483 139.702 136.885C135.172 137.343 132.784 141.08 132.95 143C133.05 144.158 138.904 147.312 140.852 147.111C142.772 146.923 147.699 142.175 147.641 141.548Z" fill="#FFC200"/>
<path d="M138.277 140.58C138.8 140.195 140.203 139.644 141.539 140.168" stroke="#FFDE00" stroke-width="3.39336" stroke-linecap="round"/>
</svg>
