<svg width="160" height="67" viewBox="0 0 160 67" fill="none" xmlns="http://www.w3.org/2000/svg">
<g clip-path="url(#clip0_4_5354)">
<path fill-rule="evenodd" clip-rule="evenodd" d="M53.2093 64.9648C42.2627 69.5652 29.6871 61.7772 29.6871 49.9031V14.3102L1.78784 -33.9778C-0.24636 -37.4986 1.74159 -41.9603 5.71385 -42.7891C18.2367 -45.4023 31.0996 -42.4954 41.2973 -35.2849C50.5509 -46.4341 64.5138 -53.5342 80.1352 -53.5342C95.7345 -53.5342 109.68 -46.454 118.934 -35.3318C129.121 -42.508 141.955 -45.3966 154.451 -42.7891C158.423 -41.9603 160.411 -37.4986 158.377 -33.9778L130.583 14.1276V49.9031C130.583 61.7771 118.008 69.5652 107.061 64.9648C96.8528 60.675 85.9261 56.7474 80.1352 56.7474C74.3441 56.7474 63.4171 60.675 53.2093 64.9648Z" fill="url(#paint0_radial_4_5354)"/>
<path d="M69.5795 27.4166C69.5795 35.1919 63.2763 41.4951 55.501 41.4951C47.7256 41.4951 41.4225 35.1919 41.4225 27.4166V19.4975C41.4225 11.7221 47.7256 5.41896 55.501 5.41896C63.2763 5.41896 69.5795 11.7221 69.5795 19.4975V27.4166Z" fill="#C7FFFE"/>
<path d="M118.561 27.4166C118.561 35.1919 112.258 41.4951 104.482 41.4951C96.707 41.4951 90.4038 35.1919 90.4038 27.4166V19.4975C90.4038 11.7221 96.707 5.41896 104.482 5.41896C112.258 5.41896 118.561 11.7221 118.561 19.4975V27.4166Z" fill="#C7FFFE"/>
<mask id="mask0_4_5354" style="mask-type:alpha" maskUnits="userSpaceOnUse" x="90" y="5" width="29" height="37">
<path d="M118.477 27.0801C118.477 34.8555 112.173 41.1586 104.398 41.1586C96.6227 41.1586 90.3196 34.8555 90.3196 27.0801V19.161C90.3196 11.3857 96.6227 5.08248 104.398 5.08248C112.173 5.08248 118.477 11.3857 118.477 19.161V27.0801Z" fill="#C7FFFE"/>
</mask>
<g mask="url(#mask0_4_5354)">
<path opacity="0.7" fill-rule="evenodd" clip-rule="evenodd" d="M93.5444 32.319C96.4599 32.3196 98.8231 34.6831 98.8231 37.5984C98.8231 38.5516 98.5698 39.4459 98.1279 40.2178C98.7631 40.4213 99.4404 40.5313 100.144 40.5313C103.789 40.5313 106.743 37.5767 106.743 33.932V26.8927C106.743 23.248 103.789 20.2935 100.144 20.2935C96.4993 20.2935 93.5444 23.248 93.5444 26.8927V32.319Z" fill="#0000FF"/>
</g>
<mask id="mask1_4_5354" style="mask-type:alpha" maskUnits="userSpaceOnUse" x="41" y="5" width="29" height="37">
<path d="M69.5795 27.4168C69.5795 35.1922 63.2763 41.4954 55.501 41.4954C47.7256 41.4954 41.4225 35.1922 41.4225 27.4168V19.4978C41.4225 11.7224 47.7256 5.41921 55.501 5.41921C63.2763 5.41921 69.5795 11.7224 69.5795 19.4978V27.4168Z" fill="#C7FFFE"/>
</mask>
<g mask="url(#mask1_4_5354)">
<path opacity="0.7" fill-rule="evenodd" clip-rule="evenodd" d="M53.1516 32.6562C56.0674 32.6562 58.4311 35.0198 58.4311 37.9356C58.4311 38.9091 58.1676 39.8212 57.708 40.6041C58.296 40.7759 58.9181 40.868 59.5617 40.868C63.2063 40.868 66.1609 37.9134 66.1609 34.2687V27.2295C66.1609 23.5848 63.2063 20.6302 59.5617 20.6302C55.917 20.6302 52.9624 23.5848 52.9624 27.2295V32.6594C53.0251 32.6572 53.0883 32.6562 53.1516 32.6562Z" fill="#0000FF"/>
</g>
<path fill-rule="evenodd" clip-rule="evenodd" d="M53.5457 13.9584C50.4792 12.9978 47.487 10.4134 44.4714 5.08246L41.0719 5.68428C40.7498 5.74132 40.5351 6.05137 40.6145 6.36865C41.7579 10.9354 45.8894 14.3177 50.8109 14.3177C51.7569 14.3177 52.6737 14.1927 53.5457 13.9584Z" fill="#9BFBFA"/>
<path d="M70.996 9.22168H79.9885H89.2644" stroke="#1C5CFF" stroke-width="2.64298" stroke-linecap="round"/>
<path d="M75.5511 7.88564H84.6648V4.2402C84.6648 1.72353 82.6246 -0.31665 80.108 -0.31665C77.5913 -0.31665 75.5511 1.72353 75.5511 4.2402V7.88564Z" fill="#1C5CFF"/>
<path d="M73.7298 9.20723H72.4083V7.88566V2.4175C72.4083 -1.83576 75.8562 -5.28363 80.1094 -5.28363C84.3626 -5.28363 87.8105 -1.83576 87.8105 2.4175V7.88566V9.20723H86.489H73.7298ZM76.874 2.4175V4.74147H83.3447V2.4175C83.3447 0.630619 81.8962 -0.817875 80.1094 -0.817875C78.3226 -0.817875 76.874 0.630619 76.874 2.4175Z" stroke="#1C5CFF" stroke-width="2.64298"/>
<path d="M103.182 57.947L90.7158 43.9418C89.2737 42.5242 85.4217 39.6889 81.5501 39.6889" stroke="#9BFBFA" stroke-width="2.93302" stroke-linecap="round"/>
<path d="M113.775 55.0134C113.262 55.0868 112.286 54.8082 111.759 53.9869C111.231 53.1657 109.926 51.6404 109.339 50.9805" stroke="#9BFBFA" stroke-width="2.93302" stroke-linecap="round"/>
<path d="M53.451 58.2772C52.3878 57.1529 50.7929 54.721 50.7929 52.0812" stroke="#9BFBFA" stroke-width="2.93302" stroke-linecap="round"/>
<path d="M45.0583 54.5357C43.8567 53.3041 41.598 49.8678 42.1747 45.975" stroke="#9BFBFA" stroke-width="2.93302" stroke-linecap="round"/>
<path d="M42.1773 45.7751C39.2442 43.0377 33.4515 36.0962 33.7448 30.2302" stroke="#9BFBFA" stroke-width="2.93302" stroke-linecap="round"/>
<path opacity="0.4" d="M118.435 44.2342C125.181 37.7229 125.841 35.2151 125.841 24.3629C125.841 24.3629 125.841 21.1073 125.841 14.8306C125.841 6.98483 115.502 -2.76746 106.043 -2.76746C100.845 -2.76746 96.3641 -1.06041 93.4418 0.59476" stroke="#0818FF" stroke-width="2.63972" stroke-linecap="round"/>
<path opacity="0.81" d="M33.5948 17.3972C33.5948 5.22515 45.2535 -2.84064 54.6392 -2.84064C59.7934 -2.84064 64.321 -0.882731 67.3494 1.01711" stroke="#2A59FF" stroke-width="2.63972" stroke-linecap="round"/>
</g>
<defs>
<radialGradient id="paint0_radial_4_5354" cx="0" cy="0" r="1" gradientUnits="userSpaceOnUse" gradientTransform="translate(53.0431 44.4738) rotate(-61.3124) scale(118.182 166.895)">
<stop stop-color="#00FF38"/>
<stop offset="0.523569" stop-color="#268AFF"/>
<stop offset="1" stop-color="#FC55FF"/>
</radialGradient>
<clipPath id="clip0_4_5354">
<rect width="159.485" height="91" fill="white" transform="translate(0.257721 -24)"/>
</clipPath>
</defs>
</svg>
