<svg width="320" height="220" viewBox="0 0 320 220" fill="none" xmlns="http://www.w3.org/2000/svg">
<path d="M38.9972 200.706H40.7841L44.9858 210.969H45.1307L49.3324 200.706H51.1193V213.07H49.7188V203.677H49.598L45.7344 213.07H44.3821L40.5185 203.677H40.3977V213.07H38.9972V200.706Z" fill="#CCCAC9"/>
<path d="M77.9877 202.034V200.706H87.2604V202.034H83.3727V213.07H81.8755V202.034H77.9877ZM93.9599 209.279V203.797H95.3846V213.07H93.9599V211.5H93.8633C93.646 211.971 93.3079 212.372 92.8491 212.702C92.3903 213.028 91.8108 213.191 91.1105 213.191C90.5309 213.191 90.0158 213.064 89.565 212.81C89.1143 212.553 88.7601 212.166 88.5025 211.651C88.245 211.132 88.1162 210.478 88.1162 209.689V203.797H89.5409V209.593C89.5409 210.269 89.73 210.808 90.1084 211.211C90.4907 211.613 90.9777 211.814 91.5693 211.814C91.9235 211.814 92.2837 211.724 92.6499 211.543C93.0202 211.362 93.3301 211.084 93.5796 210.71C93.8331 210.335 93.9599 209.858 93.9599 209.279Z" fill="#CCCAC9"/>
<path d="M124.076 213.07L120.696 200.706H122.217L124.801 210.776H124.921L127.553 200.706H129.244L131.876 210.776H131.997L134.58 200.706H136.102L132.721 213.07H131.176L128.447 203.218H128.35L125.622 213.07H124.076Z" fill="#CCCAC9"/>
<path d="M160.821 202.034V200.706H170.094V202.034H166.206V213.07H164.709V202.034H160.821ZM173.636 207.492V213.07H172.211V200.706H173.636V205.246H173.757C173.974 204.767 174.3 204.387 174.735 204.105C175.173 203.819 175.757 203.677 176.485 203.677C177.117 203.677 177.671 203.803 178.146 204.057C178.62 204.306 178.989 204.691 179.25 205.21C179.516 205.725 179.649 206.381 179.649 207.178V213.07H178.224V207.275C178.224 206.538 178.033 205.969 177.65 205.566C177.272 205.16 176.747 204.956 176.075 204.956C175.608 204.956 175.189 205.055 174.819 205.252C174.453 205.449 174.163 205.737 173.95 206.115C173.741 206.494 173.636 206.953 173.636 207.492Z" fill="#CCCAC9"/>
<path d="M208.664 213.07V200.706H216.078V202.034H210.161V206.212H215.522V207.54H210.161V213.07H208.664Z" fill="#CCCAC9"/>
<path d="M251.592 203.797C251.519 203.186 251.225 202.711 250.71 202.373C250.195 202.034 249.563 201.865 248.815 201.865C248.267 201.865 247.788 201.954 247.378 202.131C246.971 202.308 246.653 202.552 246.424 202.862C246.199 203.171 246.086 203.524 246.086 203.918C246.086 204.248 246.164 204.532 246.321 204.769C246.482 205.003 246.688 205.198 246.937 205.355C247.187 205.508 247.448 205.635 247.722 205.735C247.996 205.832 248.247 205.91 248.476 205.971L249.732 206.309C250.054 206.393 250.412 206.51 250.807 206.659C251.205 206.808 251.585 207.011 251.948 207.269C252.314 207.522 252.616 207.848 252.853 208.246C253.091 208.645 253.209 209.134 253.209 209.713C253.209 210.382 253.034 210.985 252.684 211.525C252.338 212.064 251.831 212.492 251.163 212.81C250.499 213.128 249.692 213.287 248.742 213.287C247.857 213.287 247.09 213.144 246.442 212.859C245.798 212.573 245.291 212.175 244.921 211.663C244.554 211.152 244.347 210.559 244.299 209.883H245.844C245.885 210.349 246.042 210.736 246.315 211.042C246.593 211.343 246.943 211.569 247.366 211.718C247.792 211.863 248.251 211.935 248.742 211.935C249.314 211.935 249.827 211.842 250.282 211.657C250.736 211.468 251.097 211.207 251.362 210.873C251.628 210.534 251.761 210.14 251.761 209.689C251.761 209.279 251.646 208.945 251.416 208.687C251.187 208.43 250.885 208.22 250.511 208.059C250.137 207.898 249.732 207.758 249.297 207.637L247.776 207.202C246.81 206.924 246.046 206.528 245.482 206.013C244.919 205.498 244.637 204.824 244.637 203.99C244.637 203.298 244.824 202.695 245.198 202.179C245.577 201.66 246.084 201.258 246.72 200.972C247.36 200.682 248.074 200.537 248.863 200.537C249.66 200.537 250.368 200.68 250.988 200.966C251.608 201.248 252.099 201.634 252.461 202.125C252.827 202.616 253.02 203.173 253.04 203.797H251.592ZM258.206 213.287C257.619 213.287 257.086 213.177 256.607 212.955C256.128 212.73 255.747 212.406 255.466 211.983C255.184 211.557 255.043 211.042 255.043 210.438C255.043 209.907 255.148 209.476 255.357 209.146C255.566 208.812 255.846 208.55 256.196 208.361C256.546 208.172 256.933 208.031 257.355 207.939C257.782 207.842 258.211 207.766 258.641 207.709C259.205 207.637 259.661 207.582 260.012 207.546C260.366 207.506 260.623 207.44 260.784 207.347C260.949 207.254 261.032 207.093 261.032 206.864V206.816C261.032 206.22 260.869 205.757 260.543 205.427C260.221 205.097 259.732 204.932 259.076 204.932C258.396 204.932 257.862 205.081 257.476 205.379C257.09 205.677 256.818 205.995 256.661 206.333L255.309 205.85C255.55 205.286 255.872 204.848 256.275 204.534C256.681 204.216 257.124 203.994 257.603 203.87C258.086 203.741 258.561 203.677 259.028 203.677C259.325 203.677 259.667 203.713 260.054 203.785C260.444 203.854 260.82 203.996 261.183 204.214C261.549 204.431 261.853 204.759 262.094 205.198C262.336 205.637 262.456 206.224 262.456 206.961V213.07H261.032V211.814H260.959C260.863 212.016 260.702 212.231 260.476 212.46C260.251 212.69 259.951 212.885 259.577 213.046C259.203 213.207 258.746 213.287 258.206 213.287ZM258.424 212.008C258.987 212.008 259.462 211.897 259.849 211.675C260.239 211.454 260.533 211.168 260.73 210.818C260.931 210.468 261.032 210.1 261.032 209.713V208.409C260.971 208.482 260.839 208.548 260.633 208.609C260.432 208.665 260.199 208.715 259.933 208.76C259.671 208.8 259.416 208.836 259.166 208.868C258.921 208.896 258.722 208.921 258.569 208.941C258.198 208.989 257.852 209.068 257.53 209.176C257.212 209.281 256.955 209.44 256.758 209.653C256.564 209.862 256.468 210.148 256.468 210.51C256.468 211.005 256.651 211.38 257.017 211.633C257.387 211.883 257.856 212.008 258.424 212.008Z" fill="#CCCAC9"/>
<path d="M293.259 203.797C293.186 203.186 292.892 202.711 292.377 202.373C291.862 202.034 291.23 201.865 290.482 201.865C289.934 201.865 289.455 201.954 289.045 202.131C288.638 202.308 288.32 202.552 288.091 202.862C287.866 203.171 287.753 203.524 287.753 203.918C287.753 204.248 287.831 204.532 287.988 204.769C288.149 205.003 288.355 205.198 288.604 205.355C288.854 205.508 289.115 205.635 289.389 205.735C289.663 205.832 289.914 205.91 290.143 205.971L291.399 206.309C291.721 206.393 292.079 206.51 292.474 206.659C292.872 206.808 293.252 207.011 293.615 207.269C293.981 207.522 294.283 207.848 294.52 208.246C294.758 208.645 294.876 209.134 294.876 209.713C294.876 210.382 294.701 210.985 294.351 211.525C294.005 212.064 293.498 212.492 292.83 212.81C292.166 213.128 291.359 213.287 290.409 213.287C289.524 213.287 288.757 213.144 288.109 212.859C287.465 212.573 286.958 212.175 286.588 211.663C286.221 211.152 286.014 210.559 285.966 209.883H287.511C287.552 210.349 287.709 210.736 287.982 211.042C288.26 211.343 288.61 211.569 289.033 211.718C289.459 211.863 289.918 211.935 290.409 211.935C290.981 211.935 291.494 211.842 291.949 211.657C292.403 211.468 292.763 211.207 293.029 210.873C293.295 210.534 293.428 210.14 293.428 209.689C293.428 209.279 293.313 208.945 293.083 208.687C292.854 208.43 292.552 208.22 292.178 208.059C291.804 207.898 291.399 207.758 290.964 207.637L289.443 207.202C288.477 206.924 287.713 206.528 287.149 206.013C286.586 205.498 286.304 204.824 286.304 203.99C286.304 203.298 286.491 202.695 286.865 202.179C287.244 201.66 287.751 201.258 288.387 200.972C289.027 200.682 289.741 200.537 290.53 200.537C291.327 200.537 292.035 200.68 292.655 200.966C293.275 201.248 293.766 201.634 294.128 202.125C294.494 202.616 294.687 203.173 294.707 203.797H293.259ZM302.989 209.279V203.797H304.413V213.07H302.989V211.5H302.892C302.675 211.971 302.337 212.372 301.878 212.702C301.419 213.028 300.839 213.191 300.139 213.191C299.56 213.191 299.044 213.064 298.594 212.81C298.143 212.553 297.789 212.166 297.531 211.651C297.274 211.132 297.145 210.478 297.145 209.689V203.797H298.57V209.593C298.57 210.269 298.759 210.808 299.137 211.211C299.519 211.613 300.006 211.814 300.598 211.814C300.952 211.814 301.312 211.724 301.679 211.543C302.049 211.362 302.359 211.084 302.608 210.71C302.862 210.335 302.989 209.858 302.989 209.279Z" fill="#CCCAC9"/>
<path d="M45 185.5H295" stroke="#DEDEDE" stroke-opacity="0.5" stroke-width="2"/>
<path d="M23.3125 191.109C22.4029 191.109 21.6282 190.862 20.9883 190.366C20.3484 189.867 19.8594 189.145 19.5213 188.199C19.1832 187.249 19.0142 186.102 19.0142 184.758C19.0142 183.422 19.1832 182.281 19.5213 181.335C19.8634 180.385 20.3544 179.661 20.9943 179.162C21.6383 178.659 22.411 178.407 23.3125 178.407C24.214 178.407 24.9847 178.659 25.6246 179.162C26.2686 179.661 26.7596 180.385 27.0977 181.335C27.4397 182.281 27.6108 183.422 27.6108 184.758C27.6108 186.102 27.4418 187.249 27.1037 188.199C26.7656 189.145 26.2766 189.867 25.6367 190.366C24.9968 190.862 24.2221 191.109 23.3125 191.109ZM23.3125 189.781C24.214 189.781 24.9143 189.346 25.4134 188.477C25.9124 187.608 26.1619 186.368 26.1619 184.758C26.1619 183.688 26.0472 182.776 25.8178 182.023C25.5924 181.271 25.2665 180.697 24.8398 180.303C24.4173 179.909 23.9081 179.711 23.3125 179.711C22.419 179.711 21.7208 180.152 21.2177 181.033C20.7146 181.911 20.4631 183.152 20.4631 184.758C20.4631 185.829 20.5758 186.738 20.8011 187.487C21.0265 188.235 21.3505 188.805 21.7731 189.195C22.1997 189.586 22.7128 189.781 23.3125 189.781Z" fill="#CCCAC9"/>
<path d="M45 148H295" stroke="#DEDEDE" stroke-opacity="0.5" stroke-width="2"/>
<path d="M23.1435 153.609C22.4351 153.609 21.7972 153.468 21.2298 153.186C20.6623 152.905 20.2075 152.518 19.8654 152.027C19.5233 151.536 19.3362 150.977 19.304 150.349H20.7528C20.8092 150.909 21.0627 151.371 21.5135 151.738C21.9683 152.1 22.5116 152.281 23.1435 152.281C23.6506 152.281 24.1013 152.162 24.4957 151.925C24.8942 151.687 25.2061 151.361 25.4315 150.947C25.6609 150.528 25.7756 150.055 25.7756 149.528C25.7756 148.989 25.6568 148.508 25.4194 148.085C25.186 147.659 24.864 147.323 24.4535 147.077C24.043 146.832 23.5741 146.707 23.0469 146.703C22.6686 146.699 22.2802 146.757 21.8817 146.878C21.4833 146.995 21.1553 147.145 20.8977 147.331L19.4972 147.162L20.2457 141.076H26.669V142.404H21.5014L21.0668 146.051H21.1392C21.3928 145.85 21.7107 145.683 22.093 145.55C22.4754 145.417 22.8738 145.351 23.2884 145.351C24.045 145.351 24.7191 145.532 25.3107 145.894C25.9064 146.252 26.3732 146.743 26.7113 147.367C27.0534 147.991 27.2244 148.703 27.2244 149.504C27.2244 150.293 27.0473 150.997 26.6932 151.617C26.343 152.233 25.8601 152.72 25.2443 153.078C24.6286 153.432 23.9283 153.609 23.1435 153.609Z" fill="#CCCAC9"/>
<path d="M45 110.5H295" stroke="#DEDEDE" stroke-opacity="0.5" stroke-width="2"/>
<path d="M15.6264 103.576V115.94H14.1293V105.146H14.0568L11.0384 107.15V105.629L14.1293 103.576H15.6264ZM23.2148 116.109C22.3053 116.109 21.5305 115.862 20.8906 115.366C20.2507 114.867 19.7617 114.145 19.4237 113.199C19.0856 112.249 18.9165 111.102 18.9165 109.758C18.9165 108.422 19.0856 107.281 19.4237 106.335C19.7657 105.385 20.2567 104.661 20.8967 104.162C21.5406 103.659 22.3133 103.407 23.2148 103.407C24.1164 103.407 24.8871 103.659 25.527 104.162C26.1709 104.661 26.6619 105.385 27 106.335C27.3421 107.281 27.5131 108.422 27.5131 109.758C27.5131 111.102 27.3441 112.249 27.006 113.199C26.668 114.145 26.179 114.867 25.5391 115.366C24.8991 115.862 24.1244 116.109 23.2148 116.109ZM23.2148 114.781C24.1164 114.781 24.8166 114.346 25.3157 113.477C25.8147 112.608 26.0643 111.368 26.0643 109.758C26.0643 108.688 25.9496 107.776 25.7202 107.023C25.4948 106.271 25.1688 105.697 24.7422 105.303C24.3196 104.909 23.8105 104.711 23.2148 104.711C22.3214 104.711 21.6231 105.152 21.12 106.033C20.617 106.911 20.3654 108.152 20.3654 109.758C20.3654 110.829 20.4781 111.738 20.7035 112.487C20.9289 113.235 21.2528 113.805 21.6754 114.195C22.102 114.586 22.6152 114.781 23.2148 114.781Z" fill="#CCCAC9"/>
<path d="M45 73H295" stroke="#DEDEDE" stroke-opacity="0.5" stroke-width="2"/>
<path d="M15.6264 66.0764V78.44H14.1293V67.646H14.0568L11.0384 69.6502V68.1289L14.1293 66.0764H15.6264ZM23.0458 78.609C22.3375 78.609 21.6996 78.4682 21.1321 78.1865C20.5646 77.9047 20.1098 77.5184 19.7678 77.0274C19.4257 76.5364 19.2385 75.9769 19.2063 75.3491H20.6552C20.7115 75.9085 20.9651 76.3713 21.4158 76.7376C21.8706 77.0998 22.4139 77.2809 23.0458 77.2809C23.5529 77.2809 24.0037 77.1622 24.3981 76.9247C24.7965 76.6873 25.1084 76.3613 25.3338 75.9467C25.5632 75.5282 25.6779 75.0553 25.6779 74.5281C25.6779 73.9888 25.5592 73.5078 25.3217 73.0852C25.0883 72.6586 24.7663 72.3226 24.3558 72.0771C23.9453 71.8316 23.4764 71.7068 22.9492 71.7028C22.5709 71.6988 22.1825 71.7571 21.7841 71.8779C21.3857 71.9946 21.0576 72.1455 20.8001 72.3306L19.3995 72.1616L20.1481 66.0764H26.5714V67.4045H21.4038L20.9691 71.0508H21.0415C21.2951 70.8496 21.613 70.6825 21.9954 70.5497C22.3777 70.4169 22.7762 70.3505 23.1907 70.3505C23.9473 70.3505 24.6214 70.5316 25.2131 70.8938C25.8087 71.252 26.2756 71.743 26.6136 72.3668C26.9557 72.9907 27.1268 73.703 27.1268 74.5039C27.1268 75.2927 26.9497 75.9971 26.5955 76.6168C26.2454 77.2326 25.7624 77.7196 25.1467 78.0778C24.5309 78.432 23.8306 78.609 23.0458 78.609Z" fill="#CCCAC9"/>
<path d="M45 35.5H295" stroke="#DEDEDE" stroke-opacity="0.5" stroke-width="2"/>
<path d="M9.27983 40.94V39.8534L13.3608 35.386C13.8397 34.8628 14.2341 34.408 14.544 34.0217C14.8539 33.6313 15.0833 33.265 15.2322 32.923C15.3852 32.5768 15.4616 32.2146 15.4616 31.8363C15.4616 31.4017 15.357 31.0253 15.1477 30.7074C14.9425 30.3895 14.6607 30.144 14.3026 29.9709C13.9444 29.7978 13.5419 29.7113 13.0952 29.7113C12.6203 29.7113 12.2057 29.8099 11.8516 30.0071C11.5014 30.2003 11.2298 30.472 11.0366 30.8221C10.8474 31.1722 10.7528 31.5828 10.7528 32.0536H9.32812C9.32812 31.3292 9.49515 30.6933 9.82919 30.146C10.1632 29.5986 10.618 29.172 11.1935 28.8661C11.7731 28.5603 12.4231 28.4073 13.1435 28.4073C13.8679 28.4073 14.5098 28.5603 15.0692 28.8661C15.6287 29.172 16.0674 29.5845 16.3853 30.1037C16.7032 30.6229 16.8622 31.2004 16.8622 31.8363C16.8622 32.2911 16.7797 32.7358 16.6147 33.1705C16.4537 33.6011 16.172 34.082 15.7695 34.6133C15.3711 35.1405 14.8177 35.7845 14.1094 36.5451L11.3324 39.5153V39.6119H17.0795V40.94H9.27983ZM23.6055 41.109C22.6959 41.109 21.9212 40.8615 21.2812 40.3665C20.6413 39.8674 20.1523 39.145 19.8143 38.1992C19.4762 37.2494 19.3072 36.1024 19.3072 34.7582C19.3072 33.422 19.4762 32.281 19.8143 31.3352C20.1564 30.3854 20.6474 29.661 21.2873 29.1619C21.9312 28.6589 22.704 28.4073 23.6055 28.4073C24.507 28.4073 25.2777 28.6589 25.9176 29.1619C26.5616 29.661 27.0526 30.3854 27.3906 31.3352C27.7327 32.281 27.9038 33.422 27.9038 34.7582C27.9038 36.1024 27.7347 37.2494 27.3967 38.1992C27.0586 39.145 26.5696 39.8674 25.9297 40.3665C25.2898 40.8615 24.515 41.109 23.6055 41.109ZM23.6055 39.7809C24.507 39.7809 25.2073 39.3463 25.7063 38.4769C26.2054 37.6076 26.4549 36.368 26.4549 34.7582C26.4549 33.6876 26.3402 32.7761 26.1108 32.0235C25.8854 31.2708 25.5594 30.6973 25.1328 30.3029C24.7102 29.9085 24.2011 29.7113 23.6055 29.7113C22.712 29.7113 22.0137 30.152 21.5107 31.0334C21.0076 31.9108 20.756 33.1524 20.756 34.7582C20.756 35.8287 20.8687 36.7383 21.0941 37.4869C21.3195 38.2355 21.6435 38.8049 22.0661 39.1953C22.4927 39.5857 23.0058 39.7809 23.6055 39.7809Z" fill="#FFC800"/>
<path d="M86.6667 185H128.333H170H211.667H253.333L295 87.5V185H253.333H211.667H170H128.333H86.6667Z" fill="#FFC800" fill-opacity="0.1"/>
<path d="M45 185H86.6667H128.333H170H211.667H253.333L295 87.5" stroke="#FFC800" stroke-opacity="0.5" stroke-width="2"/>
<path d="M45 188.75C47.0711 188.75 48.75 187.071 48.75 185C48.75 182.929 47.0711 181.25 45 181.25C42.9289 181.25 41.25 182.929 41.25 185C41.25 187.071 42.9289 188.75 45 188.75Z" fill="white" stroke="#FFC800" stroke-width="2"/>
<path d="M86.6667 188.75C88.7377 188.75 90.4167 187.071 90.4167 185C90.4167 182.929 88.7377 181.25 86.6667 181.25C84.5956 181.25 82.9167 182.929 82.9167 185C82.9167 187.071 84.5956 188.75 86.6667 188.75Z" fill="white" stroke="#FFC800" stroke-width="2"/>
<path d="M128.333 188.75C130.404 188.75 132.083 187.071 132.083 185C132.083 182.929 130.404 181.25 128.333 181.25C126.262 181.25 124.583 182.929 124.583 185C124.583 187.071 126.262 188.75 128.333 188.75Z" fill="white" stroke="#FFC800" stroke-width="2"/>
<path d="M170 188.75C172.071 188.75 173.75 187.071 173.75 185C173.75 182.929 172.071 181.25 170 181.25C167.929 181.25 166.25 182.929 166.25 185C166.25 187.071 167.929 188.75 170 188.75Z" fill="white" stroke="#FFC800" stroke-width="2"/>
<path d="M211.667 188.75C213.738 188.75 215.417 187.071 215.417 185C215.417 182.929 213.738 181.25 211.667 181.25C209.596 181.25 207.917 182.929 207.917 185C207.917 187.071 209.596 188.75 211.667 188.75Z" fill="white" stroke="#FFC800" stroke-width="2"/>
<path d="M253.333 188.75C255.404 188.75 257.083 187.071 257.083 185C257.083 182.929 255.404 181.25 253.333 181.25C251.262 181.25 249.583 182.929 249.583 185C249.583 187.071 251.262 188.75 253.333 188.75Z" fill="white" stroke="#FFC800" stroke-width="2"/>
<path d="M295 91.25C297.071 91.25 298.75 89.5711 298.75 87.5C298.75 85.4289 297.071 83.75 295 83.75C292.929 83.75 291.25 85.4289 291.25 87.5C291.25 89.5711 292.929 91.25 295 91.25Z" fill="white" stroke="#FFC800" stroke-width="2"/>
</svg>
