<svg width="70" height="50" viewBox="0 0 70 50" fill="none" xmlns="http://www.w3.org/2000/svg">
<g clip-path="url(#clip0_4_5192)">
<path d="M20.6834 3.71167H49.3153C53.415 3.71167 56.7384 7.03509 56.7384 11.1348V28.632C56.7384 40.0525 47.4803 49.3106 36.0598 49.3106H33.9389C22.5185 49.3106 13.2603 40.0525 13.2603 28.632V11.1348C13.2603 7.03509 16.5838 3.71167 20.6834 3.71167Z" fill="#AAC1D4"/>
<path d="M38.8522 3.71167H49.315C53.4147 3.71167 56.7381 7.03509 56.7381 11.1348V15.8195L25.1855 47.3721C18.3285 44.1639 13.5221 37.3029 13.2704 29.2935L38.8522 3.71167Z" fill="#C2D1DD"/>
<path d="M20.6835 0H49.3154C53.415 0 56.7384 3.32343 56.7384 7.42308V25.9808C56.7384 36.8156 47.9551 45.5989 37.1203 45.5989H32.8785C22.0437 45.5989 13.2604 36.8156 13.2604 25.9808V7.42308C13.2604 3.32343 16.5838 0 20.6835 0Z" fill="#C2D1DD"/>
<path d="M20.6835 4.77198C19.2193 4.77198 18.0324 5.95892 18.0324 7.42308V25.9808C18.0324 34.1801 24.6792 40.827 32.8785 40.827H37.1203C45.3196 40.827 51.9664 34.1801 51.9664 25.9808V7.42308C51.9664 5.95892 50.7795 4.77198 49.3154 4.77198H20.6835ZM20.6835 0H49.3154C53.415 0 56.7384 3.32343 56.7384 7.42308V25.9808C56.7384 36.8156 47.9551 45.5989 37.1203 45.5989H32.8785C22.0437 45.5989 13.2604 36.8156 13.2604 25.9808V7.42308C13.2604 3.32343 16.5838 0 20.6835 0Z" fill="#D6E4EF"/>
<path d="M42.5649 0H49.3162C53.4159 0 56.7393 3.32343 56.7393 7.42308V15.8195L27.6613 44.8974C20.3237 42.8778 14.7076 36.7035 13.502 29.063L42.5649 0Z" fill="#D1DCE5"/>
<path d="M18.0332 24.5318V25.9808C18.0332 33.8077 24.0901 40.22 31.7724 40.7863L27.6613 44.8974C20.3237 42.8778 14.7076 36.7035 13.502 29.063L18.0332 24.5318ZM51.9673 20.5914V7.42308C51.9673 5.95892 50.7804 4.77198 49.3162 4.77198H37.7929L42.5649 0H49.3162C53.4159 0 56.7393 3.32343 56.7393 7.42308V15.8195L51.9673 20.5914Z" fill="#E0EAF3"/>
<path fill-rule="evenodd" clip-rule="evenodd" d="M31.7692 24.0958C30.4625 23.1652 29.6167 21.6798 29.6167 20.0064C29.6167 17.188 32.0156 14.9033 34.9749 14.9033C37.9341 14.9033 40.333 17.188 40.333 20.0064C40.333 21.7135 39.4528 23.2248 38.1011 24.1513L39.4734 27.7431C39.8427 28.7098 39.2888 29.7685 38.2361 30.1078C38.0211 30.177 37.795 30.2123 37.5673 30.2123H32.2819C31.1663 30.2123 30.2618 29.3818 30.2618 28.3572C30.2618 28.1481 30.3004 27.9405 30.3759 27.7431L31.7692 24.0958Z" fill="#8097AA"/>
</g>
<defs>
<clipPath id="clip0_4_5192">
<rect width="70" height="50" fill="white"/>
</clipPath>
</defs>
</svg>
