<svg width="105" height="100" viewBox="0 0 105 100" fill="none" xmlns="http://www.w3.org/2000/svg">
<g clip-path="url(#clip0_4_5154)">
<g clip-path="url(#clip1_4_5154)">
<path d="M65.6997 86.385C65.3 83.9752 66.0076 80.3381 69.0505 79.2115C72.0934 78.085 74.3008 80.3783 74.8842 82.7951C75.4675 85.2119 75.7592 86.2186 78.8844 88.7959C82.0096 91.3723 81.2215 95.4898 77.5511 97.0043C74.5082 98.1309 70.4047 96.3716 68.4255 93.5461C66.4463 90.7198 66.0993 88.7959 65.6997 86.385Z" fill="#E619DF"/>
<path d="M86.5097 86.378C85.1826 84.2024 85.0675 79.2272 87.4678 77.0443C89.8692 74.8614 92.3646 76.8863 93.8437 78.5862C95.3219 80.286 96.0537 82.1269 99.0103 83.3782C101.967 84.6294 103.848 88.5648 101.011 91.3421C98.6103 93.5254 93.9445 93.2228 91.0518 91.3421C88.1591 89.4621 87.8367 88.5545 86.5097 86.378Z" fill="#E619DF"/>
<path d="M9.79127 19.939C16.0251 25.0653 21.8481 31.241 25.0259 33.4842L29.1383 60.4017C23.5123 60.8068 10.4475 57.6911 4.74431 46.3821C-0.0133022 36.9483 1.0792 26.5618 3.50035 21.0655C4.59299 18.5851 7.69784 18.2175 9.79127 19.939Z" fill="url(#paint0_radial_4_5154)"/>
<path d="M84.1884 20.6796C84.1884 26.2131 85.0322 50.7374 82.9866 55.5228C82.2064 70.6061 69.11 79.3505 52.7226 79.3505C31.3561 79.3505 15.5386 65.9779 14.7524 40.4967C14.7321 39.8357 14.2078 38.387 14.2078 37.7098C14.2078 25.1761 18.2754 13.8393 23.9978 9.37007C23.9978 7.54514 23.3684 4.86297 26.4278 3.38843C27.2419 2.99608 27.4671 5.97764 27.9233 6.75312C28.3796 5.28301 28.8959 0.869807 32.5965 0.210741C33.6029 0.0315336 32.755 3.02723 33.6246 2.73463C36.335 1.14565 37.8032 1.14565 39.8866 1.14565C45.1732 1.14565 46.9606 6.55946 52.5977 8.24898C55.2864 9.05485 60.0796 5.49875 64.0937 1.61306C65.2869 0.458161 68.58 1.07593 68.58 2.73463C76.8331 2.4456 84.1884 5.43306 84.1884 20.6796Z" fill="url(#paint1_radial_4_5154)"/>
<path d="M90.5579 11.6428C81.287 20.0649 66.0345 35.0421 66.0345 35.0421L69.4776 54.3503C78.5917 56.1056 93.1843 58.4061 100.331 43.8186C106.574 31.0726 101.514 17.7954 96.0452 11.6435C94.5979 10.0156 92.1707 10.1782 90.5579 11.6428Z" fill="url(#paint2_radial_4_5154)"/>
<path fill-rule="evenodd" clip-rule="evenodd" d="M71.0265 7.69644C71.4692 7.57995 71.9224 7.84435 72.0388 8.28698C72.7581 11.0202 72.0337 13.0901 70.7756 14.5274C69.9305 15.493 68.867 16.1503 67.9001 16.5555C68.3875 17.2855 68.7538 18.1428 68.9222 19.1568C69.1714 20.6571 68.9764 22.4358 68.1966 24.5718C67.7625 25.7608 67.3505 27.0087 66.9205 28.311C65.9081 31.3771 64.7962 34.7449 63.0621 38.3563C62.9534 38.5828 62.8442 38.8133 62.7336 39.0467C61.6297 41.3762 60.3856 44.0017 58.0725 45.8885C55.4707 48.0109 51.649 49.1194 45.4935 48.3192C45.0396 48.2602 44.7195 47.8444 44.7785 47.3905C44.8375 46.9366 45.2532 46.6165 45.7071 46.6755C51.5767 47.4386 54.8878 46.3474 57.0248 44.6041C59.0324 42.9666 60.1189 40.6827 61.2508 38.3034C61.3559 38.0826 61.4614 37.861 61.568 37.6389C63.2544 34.1267 64.3095 30.9293 65.3077 27.904C65.7464 26.5746 66.1742 25.2784 66.6396 24.0034C67.3502 22.057 67.4773 20.574 67.2871 19.4282C67.0986 18.2932 66.5884 17.4257 65.9092 16.7182C65.703 16.5035 65.6278 16.1946 65.7123 15.9091C65.7968 15.6237 66.0279 15.4054 66.3177 15.3374C67.2517 15.1182 68.5889 14.5091 69.5284 13.4357C70.4304 12.4053 71.0127 10.9004 70.4359 8.70877C70.3195 8.26617 70.5838 7.81292 71.0265 7.69644ZM26.5491 40.9173C26.9479 41.1418 27.0891 41.6472 26.8645 42.046C26.0308 43.5263 23.8923 45.5695 20.0885 45.1467C19.6335 45.0962 19.3057 44.6865 19.3563 44.2315C19.4068 43.7767 19.8166 43.4489 20.2715 43.4995C23.2909 43.835 24.8468 42.2508 25.4203 41.2327C25.6449 40.8338 26.1503 40.6927 26.5491 40.9173Z" fill="#1F66FB"/>
<path fill-rule="evenodd" clip-rule="evenodd" d="M16.7465 24.531C17.1918 24.6369 17.4668 25.0838 17.361 25.529C16.2778 30.0822 15.1078 36.181 16.9318 45.4961C17.0197 45.9453 16.7269 46.3807 16.2778 46.4687C15.8286 46.5566 15.3931 46.2638 15.3052 45.8146C13.4196 36.1845 14.6342 29.8298 15.7484 25.1455C15.8544 24.7002 16.3012 24.4251 16.7465 24.531Z" fill="#C7FFFE"/>
<path fill-rule="evenodd" clip-rule="evenodd" d="M5.90636 48.4233C5.4924 47.7748 5.10394 47.095 4.7447 46.3826C-0.0129055 36.9487 1.07959 26.5623 3.50075 21.0659C3.89311 20.1753 4.54493 19.557 5.31622 19.2102C5.62079 19.1908 5.93965 19.3205 6.11415 19.5717C6.37537 19.9476 6.28232 20.4642 5.90632 20.7255C5.21294 21.2072 4.49378 22.4446 3.95751 24.4219C3.43556 26.3465 3.13282 28.8002 3.13036 31.4792C3.12545 36.8541 4.32787 42.9712 7.20751 47.4058C7.45684 47.7898 7.34769 48.3032 6.96371 48.5526C6.62113 48.775 6.17554 48.7121 5.90636 48.4233Z" fill="#C7FFFE"/>
<path fill-rule="evenodd" clip-rule="evenodd" d="M84.1612 17.5811C86.4256 15.4466 88.6228 13.4019 90.5588 11.6432C90.9708 11.2688 91.4363 10.9795 91.925 10.7834C92.156 10.8291 92.3732 10.9341 92.5059 11.0832C92.8102 11.4248 92.7809 11.9488 92.4387 12.2536C86.2701 17.7557 80.3878 23.938 77.2084 27.2795C76.2244 28.3137 75.4993 29.0757 75.1047 29.4614C74.7774 29.7813 74.2525 29.7753 73.9325 29.4479C73.6125 29.1205 73.6186 28.5956 73.946 28.2756C74.2974 27.9322 74.9747 27.2202 75.9073 26.2399C76.4509 25.6684 77.0746 25.0034 77.7666 24.2655C79.5217 22.394 81.7165 20.0535 84.1612 17.5811Z" fill="#C7FFFE"/>
<path fill-rule="evenodd" clip-rule="evenodd" d="M25.5389 10.8478C25.6519 10.7157 25.7431 10.6089 25.8096 10.5271C25.1641 8.76591 24.7069 5.5624 26.5002 3.36137C26.4768 3.36722 26.4528 3.37597 26.4282 3.38779C23.7965 4.65621 23.8943 6.81821 23.9731 8.5595C23.9859 8.84245 23.9982 9.11431 23.9982 9.36945C20.3061 12.253 17.3029 17.9956 15.6365 25.0739C15.63 25.0678 15.6233 25.0617 15.6168 25.0557C15.5856 25.2716 15.5552 25.502 15.5225 25.7495C15.4511 26.2893 15.3691 26.9103 15.245 27.6388C15.4109 27.7827 15.475 27.7746 15.5829 27.761C15.7225 27.7435 15.9352 27.7168 16.5351 27.9971C16.9879 26.4241 17.5573 25.1796 18.0966 24.0009C18.3943 23.3501 18.6828 22.7194 18.9374 22.0645C21.4324 15.6489 24.4665 12.1015 25.5389 10.8478ZM53.431 8.36342C53.1357 8.36313 52.8571 8.32597 52.5981 8.24835C50.0305 7.4788 48.2615 5.93657 46.5968 4.48521C44.6068 2.75019 42.7656 1.14501 39.887 1.14501C37.8036 1.14501 36.3354 1.14501 33.625 2.734C33.4954 2.77759 33.4041 2.74819 33.3389 2.6672L33.5314 3.80575L36.0182 4.91835C38.1778 3.80575 40.3364 3.01984 43.2824 4.52563C44.6852 5.24259 45.5602 5.96718 46.3264 6.60172C47.6967 7.73646 48.7192 8.58319 51.7901 8.58319C52.3379 8.58319 52.8879 8.50323 53.431 8.36342ZM33.1665 1.64734C33.1659 1.62746 33.1653 1.60752 33.1646 1.58756C33.1487 1.08817 33.1321 0.56627 32.944 0.330933L33.1665 1.64734Z" fill="#C7FFFE"/>
<path fill-rule="evenodd" clip-rule="evenodd" d="M83.853 15.4918C83.9503 16.1771 84.0273 16.8968 84.0829 17.6527C84.1136 17.6237 84.1442 17.5948 84.1748 17.5659C82.7612 19.0708 81.154 20.8137 79.5594 22.5432L79.5584 22.5443C79.1873 22.9466 78.8169 23.3484 78.4498 23.7462C76.9279 25.3951 75.4644 26.9747 74.2516 28.2502C73.0527 29.511 72.0615 30.5147 71.502 30.981C71.1502 31.2741 70.6275 31.2265 70.3344 30.8748C70.0413 30.5231 70.0889 30.0004 70.4406 29.7073C70.9115 29.3149 71.8329 28.3877 73.0501 27.1077C74.2533 25.8423 75.7092 24.2711 77.2314 22.6217C77.5981 22.2244 77.9687 21.8225 78.3406 21.4191C80.2704 19.3262 82.2341 17.1964 83.853 15.4918Z" fill="#1F66FB"/>
<g style="mix-blend-mode:overlay">
<path d="M19.9842 53.1844L28.555 53.9327C29.0144 53.9728 29.299 54.4685 29.117 54.9115C28.2427 57.0406 26.1269 58.3788 23.8625 58.1811C21.5981 57.9834 19.7484 56.299 19.2596 54.051C19.1579 53.5831 19.5247 53.1444 19.9842 53.1844Z" fill="#1F66FB"/>
</g>
<g style="mix-blend-mode:overlay">
<path d="M36.181 54.6509L45.6101 54.0318C46.1155 53.9986 46.5042 54.4431 46.3778 54.9097C45.7703 57.1513 43.6872 58.8085 41.196 58.972C38.7049 59.1356 36.4253 57.7648 35.5333 55.6217C35.3476 55.1757 35.6756 54.6841 36.181 54.6509Z" fill="#1F66FB"/>
</g>
<g style="mix-blend-mode:overlay">
<path d="M29.9781 61.465L39.4255 61.2721C39.9319 61.2618 40.3002 61.7235 40.1528 62.1838C39.4448 64.3957 37.2889 65.9571 34.793 66.0081C32.297 66.059 30.0816 64.5867 29.2872 62.4055C29.1219 61.9515 29.4717 61.4752 29.9781 61.465Z" fill="#1F66FB"/>
</g>
<path fill-rule="evenodd" clip-rule="evenodd" d="M33.4461 2.7446C33.4693 2.81812 33.4947 2.8868 33.5226 2.95181C33.7318 3.43924 34.1216 3.80449 35.3111 4.54594C36.0518 5.00759 36.8035 5.59627 37.5356 6.18073C37.6316 6.25734 37.7273 6.33394 37.8229 6.41039C38.4704 6.92864 39.1096 7.4402 39.764 7.9028C41.2905 8.98185 42.6842 9.63202 44.0374 9.46902C44.5425 9.40817 45.0013 9.76821 45.0621 10.2733C45.123 10.7783 44.7629 11.2371 44.2578 11.2979C42.1785 11.5485 40.2888 10.5297 38.7006 9.40705C37.9978 8.91022 37.3119 8.36117 36.6681 7.8458C36.5732 7.76987 36.4793 7.69466 36.3863 7.62047C35.6483 7.03126 34.9743 6.50673 34.3367 6.10931C33.1606 5.37631 32.2898 4.75048 31.8297 3.67827C31.488 2.88203 31.406 1.8994 31.387 0.60346C31.7473 0.425427 32.1487 0.290556 32.5969 0.210741C33.1179 0.117974 33.142 0.875962 33.1646 1.58819C33.1822 2.14077 33.1989 2.66582 33.4461 2.7446Z" fill="#1F66FB"/>
<path fill-rule="evenodd" clip-rule="evenodd" d="M68.5967 2.73141C68.801 3.62059 68.7645 4.51974 68.5942 5.34756C68.2504 7.01895 67.354 8.48962 66.6784 9.27578C66.3468 9.66159 65.7653 9.70564 65.3795 9.37404C64.9937 9.04253 64.9497 8.46095 65.2813 8.07514C65.7939 7.47852 66.5207 6.2848 66.7898 4.97638C67.0515 3.70446 66.8726 2.42073 65.7477 1.37762C65.6419 1.27956 65.5644 1.16248 65.5154 1.03652C66.6487 0.922675 67.9667 1.33389 68.4188 2.1276C68.482 2.30192 68.5348 2.47736 68.5781 2.65328C68.5798 2.67924 68.5806 2.70547 68.5806 2.73196C68.586 2.73178 68.5913 2.73159 68.5967 2.73141Z" fill="#1F66FB"/>
<path fill-rule="evenodd" clip-rule="evenodd" d="M50.5735 7.41858C51.1938 7.74515 51.8632 8.02868 52.5981 8.24892C53.1339 8.4095 53.7532 8.39687 54.4333 8.24295C54.2913 8.40724 54.0853 8.51585 53.8513 8.52861C52.7415 8.58914 49.6275 9.10593 46.5176 10.6865C46.1094 10.8939 45.6104 10.7312 45.403 10.323C45.1955 9.91488 45.3582 9.41589 45.7664 9.20842C47.4554 8.35007 49.1456 7.78082 50.5735 7.41858Z" fill="#C7FFFE"/>
<path fill-rule="evenodd" clip-rule="evenodd" d="M40.4665 22.4897C40.906 22.6185 41.1576 23.0791 41.0289 23.5184C40.424 25.582 40.2849 27.5549 40.9793 28.9868C42.7671 32.6734 47.9066 34.5891 51.9958 31.4488C52.7903 30.8387 53.4444 29.9452 54.1191 28.692C54.6506 27.7049 55.1665 26.5513 55.7716 25.1987C55.9399 24.8224 56.1151 24.4307 56.2995 24.0228C56.4881 23.6056 56.9791 23.4204 57.3963 23.609C57.8135 23.7975 57.9988 24.2886 57.8102 24.7058C57.6351 25.0932 57.4659 25.4718 57.301 25.8403C56.6913 27.2037 56.1421 28.4321 55.579 29.478C54.859 30.8153 54.0709 31.9458 53.0057 32.7638C47.9902 36.6154 41.6809 34.2331 39.4875 29.7103C38.5171 27.7092 38.7997 25.2296 39.4379 23.0521C39.5666 22.6127 40.0272 22.361 40.4665 22.4897Z" fill="#1F66FB"/>
<path fill-rule="evenodd" clip-rule="evenodd" d="M19.4243 20.5221C19.8405 20.713 20.0231 21.205 19.8323 21.6212C18.2694 25.0291 18.6528 27.3264 19.5429 28.4612C20.3964 29.5493 21.9447 29.8582 23.5445 28.848C24.1792 28.4473 24.7296 27.6539 25.3157 26.3692C25.7073 25.5108 26.0774 24.5244 26.4971 23.4061C26.7037 22.8557 26.9223 22.2733 27.1614 21.6584C27.3273 21.2317 27.8076 21.0202 28.2344 21.1861C28.6611 21.352 28.8725 21.8325 28.7067 22.2591C28.4874 22.8232 28.2786 23.3791 28.0763 23.9181C27.6434 25.0712 27.2396 26.1466 26.8241 27.0574C26.2161 28.3901 25.4996 29.5744 24.4297 30.2499C22.2404 31.6323 19.706 31.3556 18.2384 29.4844C16.8073 27.6598 16.6311 24.6241 18.3253 20.93C18.5161 20.5138 19.0082 20.3312 19.4243 20.5221Z" fill="#1F66FB"/>
<path d="M31.3661 43.9896C32.3427 43.1351 32.2373 42.698 33.1528 33.0551L28.1978 34.0796C28.0147 36.7853 27.7584 42.3449 28.1978 43.3703C28.7471 44.6519 30.3896 44.8441 31.3661 43.9896Z" fill="#1F66FB"/>
<path fill-rule="evenodd" clip-rule="evenodd" d="M35.7026 32.1126C36.1571 32.1686 36.48 32.5824 36.424 33.0368C36.1224 35.4855 35.9312 37.3708 35.7866 38.8568C35.7626 39.1034 35.7399 39.3397 35.718 39.5663C35.609 40.6975 35.5231 41.5887 35.425 42.3101C35.3066 43.1806 35.1633 43.8645 34.9121 44.4846C34.6564 45.1152 34.3076 45.6345 33.8367 46.2024C31.3605 49.1885 27.2148 48.1206 26.0111 45.2621C25.5903 44.2625 25.4304 43.5061 25.386 42.8927C25.364 42.5889 25.3713 42.3341 25.3829 42.124C25.3876 42.0393 25.3921 41.9715 25.3959 41.9138C25.4027 41.812 25.4073 41.7414 25.4073 41.6641C25.4073 41.2063 25.7784 40.8351 26.2363 40.8351C26.6942 40.835 27.0653 41.2062 27.0653 41.6641C27.0653 41.7974 27.0551 41.9542 27.0464 42.0862C27.0433 42.1331 27.0405 42.1768 27.0384 42.2154C27.0289 42.3863 27.0245 42.5649 27.0396 42.7729C27.0694 43.183 27.1789 43.763 27.5392 44.6187C28.2886 46.3985 30.9252 47.1161 32.5604 45.1441C32.9667 44.6541 33.2054 44.2815 33.3755 43.8618C33.5499 43.4315 33.6706 42.907 33.7821 42.0867C33.8755 41.4004 33.9575 40.5497 34.0667 39.4178C34.0887 39.1891 34.1119 38.9489 34.1365 38.6963C34.2818 37.2027 34.4745 35.302 34.7785 32.8341C34.8345 32.3797 35.2482 32.0567 35.7026 32.1126Z" fill="#1F66FB"/>
<path d="M28.9864 33.7378C28.2966 29.9872 29.9028 27.965 33.2008 26.8228C28.0707 25.6802 25.3388 29.1929 24.7064 31.4879L28.9864 33.7378Z" fill="#C7FFFE"/>
<path fill-rule="evenodd" clip-rule="evenodd" d="M31.1309 27.1049C31.2112 26.6542 31.6416 26.3539 32.0924 26.4341C34.2915 26.8257 35.5257 27.8311 36.1782 29.0577C36.7329 30.1005 36.816 31.2336 36.8684 31.9463C36.8739 32.0223 36.8791 32.0936 36.8846 32.1593C36.9182 32.568 36.6479 32.9398 36.2488 33.034L28.5077 34.8614C28.3011 34.9102 28.0837 34.8778 27.9002 34.771L24.7616 32.9436C24.3658 32.7133 24.2319 32.2058 24.4622 31.8101C24.6926 31.4145 25.2 31.2805 25.5957 31.5108L28.4487 33.1718L35.1729 31.5845C35.1145 30.9959 35.0116 30.395 34.7144 29.8364C34.3347 29.1226 33.5744 28.3821 31.8017 28.0664C31.351 27.9862 31.0507 27.5556 31.1309 27.1049Z" fill="#1F66FB"/>
</g>
</g>
<defs>
<radialGradient id="paint0_radial_4_5154" cx="0" cy="0" r="1" gradientUnits="userSpaceOnUse" gradientTransform="translate(34.2755 7.64195) rotate(60.4571) scale(79.7924 125.447)">
<stop stop-color="#26FF55"/>
<stop offset="0.615306" stop-color="#268AFF"/>
<stop offset="1" stop-color="#FC55FF"/>
</radialGradient>
<radialGradient id="paint1_radial_4_5154" cx="0" cy="0" r="1" gradientUnits="userSpaceOnUse" gradientTransform="translate(34.2755 7.64198) rotate(60.4571) scale(79.7924 125.447)">
<stop stop-color="#26FF55"/>
<stop offset="0.615306" stop-color="#268AFF"/>
<stop offset="1" stop-color="#FC55FF"/>
</radialGradient>
<radialGradient id="paint2_radial_4_5154" cx="0" cy="0" r="1" gradientUnits="userSpaceOnUse" gradientTransform="translate(34.2755 7.64206) rotate(60.4571) scale(79.7924 125.447)">
<stop stop-color="#26FF55"/>
<stop offset="0.615306" stop-color="#268AFF"/>
<stop offset="1" stop-color="#FC55FF"/>
</radialGradient>
<clipPath id="clip0_4_5154">
<rect width="104.297" height="100" fill="white" transform="translate(0.703125)"/>
</clipPath>
<clipPath id="clip1_4_5154">
<rect width="104.297" height="99.9871" fill="white" transform="translate(0.703125 0.00646973)"/>
</clipPath>
</defs>
</svg>
